<svg xmlns="http://www.w3.org/2000/svg" xmlnsXlink="http://www.w3.org/1999/xlink" xmlSpace="preserve" version="1.1" viewBox="0 0 846.66 1058.325" x="0px" y="0px" fillRule="evenodd" clipRule="evenodd">
  <defs>
    <style type="text/css">
      {`
        .fil0 {fill: black; fill-rule: nonzero}
        svg {
          shape-rendering: geometricPrecision;
          text-rendering: geometricPrecision;
          image-rendering: optimizeQuality;
        }
      `}
    </style>
  </defs>
  <g>
    <path className="fil0" d="M771.97 423.34l-109.19 -118 0 68.61 -175.82 0 0 98.77 175.82 0 0 68.61 109.19 -117.99zm-223.48 -67.53l0 -258.28 -112.26 0 0 651.61 112.26 0 0 -258.28 -79.66 0 0 -135.05 79.66 0zm-209.93 -3.44c-4.98,0 -9.8,3.62 -13.54,9.46 -4.5,7.02 -7.3,16.95 -7.3,28.08 0,11.13 2.8,21.06 7.3,28.08 3.74,5.83 8.56,9.45 13.54,9.45 4.98,0 9.79,-3.62 13.54,-9.45 4.5,-7.02 7.3,-16.95 7.3,-28.08 0,-11.13 -2.8,-21.06 -7.3,-28.08 -3.75,-5.84 -8.56,-9.46 -13.54,-9.46zm-28.76 -0.3c7.06,-11.02 17.22,-17.84 28.76,-17.84 11.54,0 21.7,6.82 28.76,17.84 6.3,9.82 10.22,23.23 10.22,37.84 0,14.61 -3.92,28.01 -10.22,37.84 -7.06,10.99 -17.21,17.82 -28.76,17.82 -11.54,0 -21.7,-6.83 -28.76,-17.82 -6.3,-9.83 -10.22,-23.23 -10.22,-37.84 0,-14.61 3.92,-28.02 10.22,-37.84zm108.3 -330.9l-343.42 74.59 0 655.15 343.42 74.59 0 -58.22 0 -687.89 0 -58.22z"/>
  </g>
</svg>
