<svg xmlns="http://www.w3.org/2000/svg" data-name="Line\" viewBox="0 0 48 60" x="0px" y="0px"  fill="#000000"><path d="m5,24.12012c.55273,0,1-.44727,1-1v-10.69043c0-1.38379,1.12109-2.50977,2.5-2.50977h10.7998c.55273,0,1-.44727,1-1s-.44727-1-1-1h-10.7998c-2.48145,0-4.5,2.02344-4.5,4.50977v10.69043c0,.55273.44727,1,1,1Z"/><path d="m8.5,44h27.07031c2.48633,0,4.50977-2.01855,4.50977-4.5v-10.7998c0-.55273-.44727-1-1-1s-1,.44727-1,1v10.7998c0,1.37891-1.12598,2.5-2.50977,2.5H8.5c-1.37891,0-2.5-1.12109-2.5-2.5v-10.37012c0-.55273-.44727-1-1-1s-1,.44727-1,1v10.37012c0,2.48145,2.01855,4.5,4.5,4.5Z"/><path d="m39.68652,4c-1.15234,0-2.23535.44922-3.04883,1.26367l-12.73145,12.73047c-.06616.06628-.1228.14044-.18427.21075-.00952.01172-.02344.01721-.03253.02948-.00378.00513-.00415.01147-.00781.01666-.40955.48236-.71472,1.04688-.87695,1.66107l-1.45117,5.5127c-.09082.34473.00781.71094.25977.96191.18945.19043.44531.29297.70703.29297.08496,0,.16992-.01074.25488-.0332l5.5127-1.45117c.7246-.19141,1.3877-.57227,1.91895-1.10254l12.72949-12.73047c.81445-.81348,1.26367-1.89648,1.26367-3.04883s-.44922-2.23535-1.26367-3.0498-1.89746-1.26367-3.0498-1.26367Zm-15.96289,20.27637l1.01465-3.85449c.0083-.03125.0271-.05835.03668-.08917.51965.42993,1.03192.88043,1.52289,1.3714.48907.48907.93896,1.00116,1.3689,1.52118-.03064.00952-.05756.0282-.08862.03644l-3.85449,1.01465Zm17.59863-14.32812l-12.06494,12.06586c-.4848-.59045-.99249-1.17114-1.54541-1.72406-.55426-.55493-1.13519-1.06311-1.72546-1.54791l12.06531-12.06439c.43652-.43652,1.01758-.67773,1.63477-.67773.61816,0,1.19922.24121,1.63574.67773s.67773,1.01758.67773,1.63574c0,.61719-.24121,1.19824-.67773,1.63477Z"/></svg>