<svg xmlns="http://www.w3.org/2000/svg" xmlns:xlink="http://www.w3.org/1999/xlink" xmlns:xodm="http://www.corel.com/coreldraw/odm/2003" xml:space="preserve" version="1.1" style="shape-rendering:geometricPrecision;text-rendering:geometricPrecision;image-rendering:optimizeQuality;" viewBox="0 0 846.66 1058.325" x="0px" y="0px" fill-rule="evenodd" clip-rule="evenodd"><defs><style type="text/css">
   
    .fil0 {fill:black;fill-rule:nonzero}
   
  </style></defs><g><path class="fil0" d="M524.81 476.58l0 272.47 -121.88 0 0 76.44 -363.35 -78.93 0 -646.46 10.03 -2.18 353.32 -76.75 0 76.45 121.88 0 0 272.47 97.16 0 -59.33 -59.33 65.93 -65.94 121.56 121.58 56.94 56.94 -178.5 178.5 -65.93 -65.93 59.33 -59.33 -97.16 0zm-147.3 272.47l0 -651.43 0 -44.94 -312.51 67.88 0 605.55 312.51 67.88 0 -44.94zm-70.11 -376.93c-15.34,0 -28.21,16.37 -31.84,38.5l-47.41 0 0 25.42 47.4 0c3.62,22.14 16.5,38.51 31.85,38.51 18.16,0 32.87,-22.91 32.87,-51.21 0,-28.29 -14.71,-51.22 -32.87,-51.22zm463.73 51.22l-142.56 -142.57 -29.99 29.99 84.75 84.74 -230.49 0 0 55.67 230.49 0 -84.75 84.74 29.99 29.99 142.56 -142.56z"/></g><text x="0" y="861.66" fill="#000000" font-size="5px" font-weight="bold" font-family="'Helvetica Neue', Helvetica, Arial-Unicode, Arial, Sans-serif">Created by White Snow</text><text x="0" y="866.66" fill="#000000" font-size="5px" font-weight="bold" font-family="'Helvetica Neue', Helvetica, Arial-Unicode, Arial, Sans-serif">from the Noun Project</text></svg>